PathFileType	4	(X/Y/Z)	 s05c0203.trc
DataRate	CameraRate	NumFrames	NumMarkers	Units	OrigDataRate	OrigDataStartFrame	OrigNumFrames
200	200	6	47	mm	200	501	2000
Frame#	Time	racr			lacr			c7			jug			rlel			rdr			llel			ldr			s2			lic			ric			lasi			rasi			rpsi			lpsi			rgt			lgt			rth1			rth2			rth3			rth4			rlfc			rsh1			rsh2			rsh3			rsh4			rlmal			rcal			rtoe			rmt5			lth1			lth2			lth4			lth3			llfc			lmfc			lsh1			lsh2			lsh3			lsh4			llmal			lcal			ltoe			lmt5			SBIKE			LBIKE			RBIKE			
		X1	Y1	Z1	X2	Y2	Z2	X3	Y3	Z3	X4	Y4	Z4	X5	Y5	Z5	X6	Y6	Z6	X7	Y7	Z7	X8	Y8	Z8	X9	Y9	Z9	X10	Y10	Z10	X11	Y11	Z11	X12	Y12	Z12	X13	Y13	Z13	X14	Y14	Z14	X15	Y15	Z15	X16	Y16	Z16	X17	Y17	Z17	X18	Y18	Z18	X19	Y19	Z19	X20	Y20	Z20	X21	Y21	Z21	X22	Y22	Z22	X23	Y23	Z23	X24	Y24	Z24	X25	Y25	Z25	X26	Y26	Z26	X27	Y27	Z27	X28	Y28	Z28	X29	Y29	Z29	X30	Y30	Z30	X31	Y31	Z31	X32	Y32	Z32	X33	Y33	Z33	X34	Y34	Z34	X35	Y35	Z35	X36	Y36	Z36	X37	Y37	Z37	X38	Y38	Z38	X39	Y39	Z39	X40	Y40	Z40	X41	Y41	Z41	X42	Y42	Z42	X43	Y43	Z43	X44	Y44	Z44	X45	Y45	Z45	X46	Y46	Z46	X47	Y47	Z47	
501	2.5050	484.365764	1298.655939	-141.320758	480.012596	1314.228078	-409.586594	449.108602	1389.129724	-278.697405	417.901685	1225.599377	-277.181196	478.073956	1082.089610	42.463907	666.699576	965.905118	-63.707896	458.015411	1088.855524	-598.365879	663.718317	977.131449	-482.411340	-111.084555	1190.803871	-271.929805	41.148571	1197.600037	-416.955089	31.648284	1220.956194	-132.700113	84.176861	1143.100413	-375.360380	70.805516	1159.963806	-158.975455	-78.579568	1242.026531	-236.092676	-70.840250	1238.734206	-320.643855	0.863599	1104.152170	-98.084492	-34.061363	1091.350125	-434.197468	112.693256	1063.526566	-93.470001	201.633966	1056.622158	-98.549582	272.861908	1004.970294	-104.500332	212.217084	1088.409378	-114.360759	398.087952	933.881227	-136.894325	315.950517	865.831358	-106.851580	277.221352	786.145604	-113.137065	207.987244	735.913831	-110.971480	300.298710	768.208637	-137.770746	126.551683	630.558305	-109.768243	46.715164	631.576466	-152.288081	297.709370	476.254739	-150.689641	199.346861	503.882257	-85.423592	30.584754	965.084641	-454.897938	86.412993	899.860145	-458.323581	120.161586	913.571009	-449.207657	101.097457	810.386846	-458.423642	156.037135	677.422562	-420.573126	141.061055	662.486404	-314.763788	124.916735	556.472055	-452.951372	140.817602	471.094636	-442.502357	111.776803	387.125120	-444.561411	170.569273	471.309912	-418.426037	112.866113	266.175044	-439.261272	48.943912	236.110779	-400.192943	334.386841	163.003426	-390.056429	227.532075	156.359940	-459.727051	-258.224220	895.500902	-279.926036	-43.400612	85.134142	-474.725134	-51.775475	80.281419	-77.244173	
502	2.5100	483.241620	1297.290573	-138.643686	481.033996	1312.158167	-405.780906	448.918440	1388.027258	-276.627277	417.221483	1224.287879	-274.464555	477.611496	1080.366796	44.155651	666.839444	965.950959	-63.305896	459.600414	1089.827551	-598.039471	663.989588	977.436492	-481.721432	-112.061642	1191.499477	-273.261711	41.359720	1197.184984	-417.704492	29.809035	1222.059009	-133.645141	83.701213	1142.783842	-375.321329	69.123514	1160.854298	-159.441484	-79.575405	1243.034927	-237.502518	-71.282692	1239.135126	-322.231720	-0.905849	1105.351366	-98.795974	-34.180458	1090.990661	-435.022655	111.066601	1064.558599	-94.486247	200.150807	1058.132806	-99.524835	271.469030	1006.705986	-105.573398	210.633612	1089.916594	-115.282007	397.137803	936.202492	-138.103773	315.718163	867.549767	-108.010534	277.939892	787.394556	-113.867963	209.412251	736.215666	-111.354418	301.288003	769.449825	-138.423520	129.285497	629.445789	-109.789056	49.227578	628.484776	-152.024073	304.206226	479.970255	-150.263021	205.289853	504.911575	-85.047102	30.992825	965.038149	-454.457283	87.121653	900.008346	-457.360113	120.651661	913.947596	-448.041546	102.250290	810.668378	-457.496666	157.586310	677.682785	-419.679948	142.446302	663.049669	-313.478303	124.179391	557.174465	-452.102543	138.442172	471.456776	-441.541852	107.818057	388.055215	-443.619094	168.220116	471.052271	-417.555198	106.683758	266.949488	-438.663139	42.636143	237.139898	-399.141365	327.535161	161.794135	-390.610129	220.335267	156.006323	-459.536052	-258.476383	895.568067	-279.906599	-43.412955	85.175790	-474.705602	-51.765091	80.299454	-77.221810	
503	2.5150	482.084820	1295.875187	-135.839705	481.726171	1310.221952	-401.060957	448.923046	1386.479636	-273.800834	416.489415	1222.762383	-271.834728	477.183219	1078.627038	45.924246	666.763313	965.831494	-63.107055	460.926293	1090.585781	-597.840126	664.282418	977.690251	-481.097365	-113.084500	1192.081034	-274.839262	41.308664	1196.524172	-418.207723	27.931826	1223.026592	-134.649409	83.228486	1142.394650	-375.441589	67.384037	1161.720374	-160.095298	-80.395079	1243.731221	-239.102987	-71.759600	1239.497880	-323.854099	-2.505001	1106.426365	-99.159724	-34.335247	1090.600285	-436.070766	109.489765	1065.763269	-95.372612	198.567311	1059.485781	-100.549957	269.960294	1008.151991	-106.630222	208.969410	1091.187274	-116.396898	395.987331	938.014826	-139.292770	315.182193	868.665226	-109.123543	278.423633	788.061410	-114.529980	210.509536	736.026126	-111.699153	302.041740	770.112317	-138.846823	131.762660	627.769456	-109.711647	51.631930	624.577965	-151.686866	310.667011	483.485348	-150.110216	211.179444	505.665687	-84.595188	31.621849	964.832279	-454.250289	88.176885	900.244032	-456.278560	121.511341	914.322878	-446.741514	103.975712	810.984464	-456.487846	160.058297	678.197623	-418.624183	144.681586	663.788462	-312.187701	124.014278	558.152124	-451.073228	136.480693	472.139202	-440.569300	104.046459	389.476640	-442.645437	166.285690	471.173845	-416.705470	100.459279	268.070578	-438.012990	36.382460	238.538014	-397.700736	320.700228	160.775104	-391.332802	212.911224	155.979999	-459.387282	-258.404381	895.595177	-280.031945	-43.425934	85.216688	-474.687728	-51.802021	80.300118	-77.198561	
504	2.5200	480.924683	1294.258497	-133.083269	482.577561	1307.920808	-397.389376	448.848149	1384.860901	-270.877275	415.816254	1221.144761	-269.201534	476.778257	1076.804283	47.718837	666.592995	965.656514	-62.965273	462.383211	1091.421574	-597.892634	664.632491	977.918108	-480.482523	-114.070834	1192.281647	-276.882929	41.336385	1195.811989	-418.938929	26.040665	1223.757860	-135.725450	82.614789	1141.717323	-375.535700	65.674800	1162.333622	-160.735080	-82.058726	1244.768366	-240.667489	-72.292648	1239.684893	-325.438381	-4.379382	1107.817862	-99.779345	-34.464106	1090.046773	-437.110803	107.924499	1066.982309	-96.204952	196.980250	1060.547972	-101.714841	268.337078	1009.357615	-107.684474	207.306497	1092.287177	-117.642167	394.751457	939.247435	-140.575669	314.505972	869.219335	-110.289447	278.677227	788.104265	-115.133562	211.435504	735.341736	-112.000305	302.607775	770.313256	-139.254546	133.951867	625.625683	-109.436529	53.879103	619.967628	-151.260616	317.192619	486.847083	-150.095258	216.956339	505.943341	-84.115911	32.504770	964.485862	-454.231153	89.612591	900.493560	-455.200279	122.661380	914.844675	-445.220720	106.273088	811.343633	-455.331997	163.469408	679.040508	-417.534132	147.757773	664.863019	-311.021659	124.387114	559.550086	-449.916594	134.884154	473.282247	-439.546508	100.551924	391.302694	-441.690360	164.707409	471.478917	-415.795174	94.273695	269.550635	-437.174472	30.192531	240.474391	-395.929281	313.834943	159.991185	-392.453507	205.366745	156.140651	-459.214921	-258.475679	895.623122	-279.835665	-43.447045	85.266417	-474.674360	-51.805912	80.291205	-77.208746	
505	2.5250	479.748837	1292.430758	-130.075700	483.422953	1305.542061	-393.759924	448.683493	1383.100199	-268.038816	415.022631	1219.367202	-266.573524	476.482860	1074.962350	49.543159	666.321195	965.407922	-62.837583	463.691247	1092.146986	-597.836188	665.043940	978.129376	-479.850493	-115.049421	1192.617247	-278.622593	41.381402	1195.229345	-420.031467	24.125861	1224.244222	-136.695812	82.035885	1140.984152	-375.787287	64.043698	1162.917117	-161.454629	-82.927918	1245.169876	-242.242636	-72.831544	1239.741892	-327.153091	-6.247691	1109.127968	-100.461439	-34.574905	1089.364449	-438.196794	106.295213	1068.045012	-97.057883	195.239433	1061.537493	-102.826076	266.609862	1010.251975	-108.761047	205.613033	1093.028247	-119.009237	392.997330	940.103628	-140.975710	313.549005	869.136415	-111.403352	278.788087	787.506837	-115.715286	212.187498	733.906665	-112.153506	302.944753	769.691796	-139.661533	136.059559	622.658441	-109.166841	55.957949	614.562293	-150.692087	323.538675	490.364032	-149.920531	222.740321	505.831378	-83.623493	33.595344	963.935009	-454.323200	91.454923	900.664786	-454.063497	124.134769	915.354129	-443.674048	109.176760	811.765159	-454.018445	167.753728	680.150633	-416.170458	151.527125	666.177660	-309.674240	125.263538	561.337831	-448.644789	133.653163	474.789462	-438.378247	97.363785	393.724633	-440.598668	163.549030	472.281818	-414.850638	88.328645	271.534512	-436.105971	24.311755	243.026700	-393.907859	307.036107	159.095791	-393.627072	197.738080	156.593417	-458.961693	-258.529231	895.679583	-279.710861	-43.459772	85.333136	-474.648343	-51.813916	80.323249	-77.165175	
506	2.5300	478.518715	1290.755972	-126.851123	484.263945	1302.939916	-390.086349	448.462518	1381.188428	-265.269602	414.238878	1217.488289	-263.945217	476.154072	1072.986453	51.356328	665.872536	965.093040	-62.758044	464.868070	1092.587093	-597.733987	665.479210	978.344647	-479.244065	-116.049247	1192.688515	-280.411465	41.055679	1194.041408	-420.445709	22.180295	1224.683246	-137.867408	81.482639	1140.277145	-376.249825	62.463349	1163.297696	-162.277631	-83.895995	1245.340260	-243.757411	-73.563481	1239.660429	-328.835174	-8.041649	1110.165930	-101.304058	-34.754040	1088.584136	-439.335050	104.648599	1068.913235	-98.021862	193.495715	1062.076531	-104.017325	264.676203	1010.423703	-109.895813	203.823944	1093.514979	-120.444349	391.238141	939.873840	-142.019781	312.507180	868.279751	-112.418106	278.667757	786.112729	-116.088255	212.740559	731.892018	-112.232403	303.166554	768.741709	-139.861119	137.982250	618.846887	-108.894354	57.943261	608.349051	-150.026021	329.652543	493.638306	-149.666565	228.479193	505.374096	-83.065430	34.890901	963.261238	-454.492928	93.620464	900.782575	-453.000599	125.935575	915.999185	-442.064602	112.640502	812.154431	-452.465100	172.620951	681.467482	-414.765279	155.739893	667.691021	-308.462511	126.620624	563.384433	-447.414848	132.885943	476.593254	-437.096103	94.652664	396.456702	-439.305573	162.948596	473.316198	-413.896275	82.897964	274.126323	-434.901529	18.491340	246.282669	-392.064672	300.427834	158.208017	-394.485217	190.472886	157.436427	-458.561396	-258.710936	895.719105	-279.698680	-43.471556	85.341950	-474.621190	-51.816753	80.321239	-77.153067	
